<?xml version="1.0" standalone="no"?>
<!DOCTYPE svg PUBLIC "-//W3C//DTD SVG 20010904//EN"
 "http://www.w3.org/TR/2001/REC-SVG-20010904/DTD/svg10.dtd">
<svg version="1.0" xmlns="http://www.w3.org/2000/svg"
 width="320.000000pt" height="132.000000pt" viewBox="0 0 320.000000 132.000000"
 preserveAspectRatio="xMidYMid meet">
<metadata>
Created by potrace 1.16, written by Peter Selinger 2001-2019
</metadata>
<g transform="translate(0.000000,132.000000) scale(0.100000,-0.100000)"
fill="#000000" stroke="none">
<path d="M1809 1267 c-19 -12 -59 -59 -89 -104 -30 -45 -58 -85 -62 -88 -3 -4
-38 41 -77 99 l-71 106 -71 0 c-53 0 -70 -3 -66 -12 2 -7 50 -82 106 -167 62
-95 97 -159 92 -165 -17 -22 -221 -337 -221 -342 0 -3 33 -4 73 -2 l72 3 75
112 c41 61 78 114 81 118 4 3 41 -48 84 -115 l77 -120 69 0 c41 0 69 4 69 10
0 6 -46 81 -103 168 -57 86 -107 163 -111 169 -4 8 36 77 99 173 58 89 103
166 100 171 -12 18 -91 10 -126 -14z"/>
<path d="M555 1256 c-13 -13 -26 -39 -30 -57 -3 -19 -4 -162 -3 -319 l3 -285
65 0 65 0 0 222 0 222 147 -225 148 -224 60 0 60 0 0 345 0 345 -65 0 -65 0 0
-222 c-1 -178 -3 -220 -13 -206 -7 9 -72 109 -146 222 -131 201 -135 206 -168
206 -22 0 -42 -8 -58 -24z"/>
<path d="M2234 1266 c-3 -7 -4 -35 -2 -62 l3 -49 78 -3 77 -3 0 -279 0 -280
65 0 65 0 0 279 0 279 60 4 c45 3 66 10 85 28 24 23 47 77 38 93 -2 4 -108 7
-234 7 -186 0 -231 -3 -235 -14z"/>
</g>
</svg>
